<?xml version="1.0" encoding="UTF-8" standalone="no"?>
<!-- Generator: Adobe Illustrator 17.0.2, SVG Export Plug-In . SVG Version: 6.00 Build 0)  -->

<svg
   xmlns:dc="http://purl.org/dc/elements/1.1/"
   xmlns:cc="http://creativecommons.org/ns#"
   xmlns:rdf="http://www.w3.org/1999/02/22-rdf-syntax-ns#"
   xmlns:svg="http://www.w3.org/2000/svg"
   xmlns="http://www.w3.org/2000/svg"
   xmlns:sodipodi="http://sodipodi.sourceforge.net/DTD/sodipodi-0.dtd"
   xmlns:inkscape="http://www.inkscape.org/namespaces/inkscape"
   version="1.1"
   x="0px"
   y="0px"
   width="2850px"
   height="280px"
   viewBox="0 0 2850 280"
   enable-background="new 0 0 2850 280"
   xml:space="preserve"
   id="svg2"
   inkscape:version="0.48.4 r9939"
   sodipodi:docname="flat.svg"><metadata
   id="metadata20"><rdf:RDF><cc:Work
       rdf:about=""><dc:format>image/svg+xml</dc:format><dc:type
         rdf:resource="http://purl.org/dc/dcmitype/StillImage" /><dc:title></dc:title></cc:Work></rdf:RDF></metadata><defs
   id="defs18" /><sodipodi:namedview
   pagecolor="#ffffff"
   bordercolor="#666666"
   borderopacity="1"
   objecttolerance="10"
   gridtolerance="10"
   guidetolerance="10"
   inkscape:pageopacity="0"
   inkscape:pageshadow="2"
   inkscape:window-width="1280"
   inkscape:window-height="961"
   id="namedview16"
   showgrid="false"
   inkscape:zoom="0.31360806"
   inkscape:cx="1124.1006"
   inkscape:cy="-57.466513"
   inkscape:window-x="-8"
   inkscape:window-y="-8"
   inkscape:window-maximized="1"
   inkscape:current-layer="svg2" />
<g
   id="HALCYON_1_">
	<g
   transform="matrix(1 0 0 1 -15.38 259.3441)"
   style="font-size:342.13769531px;font-family:GeosansLight"
   id="text5"><path
     d="m 188.17156,0 0,-244.28264 -14.02255,0 0,102.98169 -134.461956,0 0,-102.98169 -13.688432,0 0,244.28264 13.688432,0 0,-127.2784 134.461956,0 0,127.2784 z"
     style="font-size:342.13769531px;font-family:GeosansLight"
     id="path2998" /><path
     d="M 416.45826,0 318.61364,-252.15531 221.10315,0 l 13.68843,0 28.38966,-73.213791 111.19893,0 L 402.43571,0 z m -47.89385,-87.246783 -99.90153,0 49.95076,-129.324877 z"
     style="font-size:342.13769531px;font-family:GeosansLight"
     id="path3000" /><path
     d="m 535.45676,0 0,-14.02255 -68.76583,0 0,-230.26009 -13.68843,0 0,244.28264 z"
     style="font-size:342.13769531px;font-family:GeosansLight"
     id="path3002" /><path
     d="m 777.1709,-26.343183 0,-16.079469 c -13.23271,9.578106 -24.18206,16.535428 -32.84806,20.871987 -15.04945,7.294942 -32.72641,10.942402 -53.03093,10.942392 -32.61846,10e-6 -59.41755,-10.489919 -80.39734,-31.469819 -20.75718,-20.75707 -31.13573,-47.444786 -31.1357,-80.063228 -3e-5,-32.6182 10.49164,-59.41903 31.47504,-80.40257 20.98327,-20.98313 47.66925,-31.4748 80.058,-31.47504 18.93324,2.4e-4 37.06613,3.53285 54.39873,10.59784 11.40856,4.79621 21.90197,11.18623 31.48026,19.17006 l 0,-17.4577 c -9.34859,-7.2947 -19.0415,-12.88075 -29.07878,-16.75815 -16.88015,-6.16007 -35.81353,-9.24023 -56.80021,-9.24048 -36.94808,2.5e-4 -67.1684,11.7466 -90.66105,35.2391 -23.27002,23.26321 -34.905,53.37216 -34.90498,90.32694 -2e-5,36.948061 11.74981,67.168384 35.24954,90.66106 23.26294,23.2699937 53.36841,34.9049747 90.31649,34.9049781 3.19487,-3.4e-6 6.27503,-0.05743 9.24048,-0.17228 2.96515,-0.1148565 5.70074,-0.2871363 8.20679,-0.5168401 21.89853,-2.05343938 39.23441,-7.7543364 52.00769,-17.102708 z"
     style="font-size:342.13769531px;font-family:GeosansLight"
     id="path3004" /><path
     d="m 953.08442,-244.28264 -16.07947,0 -60.89316,105.71729 -60.22492,-105.71729 -16.07947,0 69.45495,122.14132 0,122.14132 14.03299,0 0,-122.14132 z"
     style="font-size:342.13769531px;font-family:GeosansLight"
     id="path3006" /><path
     d="m 1232.1781,-122.14132 c -3e-4,-36.95478 -11.7466,-67.17858 -35.2391,-90.6715 -23.7226,-23.26279 -53.9464,-34.89429 -90.6715,-34.89454 -36.9481,2.5e-4 -67.1684,11.7466 -90.6611,35.2391 -23.26997,23.26321 -34.90495,53.37216 -34.90494,90.32694 -10e-6,36.948061 11.74982,67.168384 35.24954,90.66106 23.2629,23.2699937 53.3684,34.9049747 90.3165,34.9049781 36.9548,-3.4e-6 67.1786,-11.7463572 90.6715,-35.2390971 23.4925,-23.26993 35.2388,-53.37888 35.2391,-90.326941 z m -14.033,0 c -2e-4,33.070894 -10.3753,59.984836 -31.1253,80.741907 -20.987,20.527447 -47.9044,30.79115 -80.7523,30.79114 -32.6185,10e-6 -59.4175,-10.489919 -80.3973,-31.469819 -20.7572,-20.75707 -31.13578,-47.444786 -31.13575,-80.063228 -3e-5,-32.6182 10.49165,-59.41903 31.47505,-80.40257 20.9833,-20.98313 47.6692,-31.4748 80.058,-31.47504 32.8479,2.4e-4 59.7653,10.49017 80.7523,31.46982 20.75,20.75732 31.1251,47.55989 31.1253,80.40779 z"
     style="font-size:342.13769531px;font-family:GeosansLight"
     id="path3008" /><path
     d="m 1467.6587,4.103397 0,-248.386037 -14.033,0 0,212.123701 -182.3558,-213.836061 0,245.995 13.6885,0 0,-207.33118 z"
     style="font-size:342.13769531px;font-family:GeosansLight"
     id="path3010" /></g>
</g>
<g
   id="ECHOES_1_">
	<g
   transform="matrix(1 0 0 1 1480.2266 262.7754)"
   style="font-size:354.44198608px;font-style:normal;font-variant:normal;font-weight:bold;font-stretch:normal;font-family:Opificio;-inkscape-font-specification:Opificio Bold"
   id="text8"><path
     d="m 14.180708,-248.11372 171.542222,0 0,42.54213 -129.010914,0 0,74.42979 106.328264,0 0,42.174352 -106.328264,0 0,46.43614 129.010914,0 0,42.531308 -171.542222,0 z"
     style="font-size:354.44198608px;font-style:normal;font-variant:normal;font-weight:bold;font-stretch:normal;font-family:Opificio;-inkscape-font-specification:Opificio Bold"
     id="path3013" /><path
     d="m 250.753,-124.05686 c -6e-5,12.2879 2.36339,23.80768 7.09035,34.559393 4.72684,10.75189 11.16638,20.203883 19.31865,28.356008 8.1521,8.152248 17.66179,14.59179 28.52907,19.318646 10.86707,4.72694 22.44455,7.090389 34.73246,7.090354 12.28763,3.5e-5 23.86691,-2.422906 34.73787,-7.26883 10.87061,-4.845839 20.44158,-11.404365 28.71296,-19.675597 l 53.52108,0 c -5.43745,10.160549 -12.11496,19.495361 -20.03255,28.004465 -7.91806,8.509171 -16.83823,15.835682 -26.76054,21.979556 -9.92273,6.1438978 -20.79171,10.92848485 -32.60697,14.3537759 -11.81563,3.4252857 -24.33956,5.1379299 -37.57185,5.1379377 -18.19383,-7.8e-6 -35.26619,-3.484788 -51.21713,-10.4543512 -15.95111,-6.9695578 -29.89204,-16.4215514 -41.82281,-28.3560074 -11.93087,-11.934395 -21.38286,-25.877122 -28.35601,-41.828222 -6.97318,-15.950954 -10.45977,-33.023308 -10.45976,-51.217128 -1e-5,-17.9556 3.48658,-34.96846 10.45976,-51.03865 6.97315,-16.06984 16.42514,-30.07025 28.35601,-42.00129 11.93077,-11.9306 25.8717,-21.38079 41.82281,-28.3506 15.95094,-6.96931 33.0233,-10.45409 51.21713,-10.45435 13.47026,2.6e-4 26.11318,1.88957 37.9288,5.66796 11.81526,3.77888 22.74373,8.91681 32.78545,15.41381 10.04129,6.49747 18.96146,14.00065 26.76054,22.50958 7.7986,8.50935 14.29764,17.48721 19.49712,26.93361 l -53.87804,0 c -8.50934,-8.50174 -18.08031,-15.23514 -28.71295,-20.20021 -10.633,-4.96466 -22.09329,-7.44709 -34.38092,-7.44731 -12.28791,2.2e-4 -23.86539,2.36367 -34.73246,7.09036 -10.86728,4.7271 -20.37697,11.10715 -28.52907,19.14017 -8.15227,8.03339 -14.59181,17.48538 -19.31865,28.35601 -4.72696,10.87094 -7.09041,22.33123 -7.09035,34.38091 z"
     style="font-size:354.44198608px;font-style:normal;font-variant:normal;font-weight:bold;font-stretch:normal;font-family:Opificio;-inkscape-font-specification:Opificio Bold"
     id="path3015" /><path
     d="m 609.44594,-248.11372 42.17436,0 0,248.11372 -42.17436,0 0,-88.967448 -86.83655,0 0,88.967448 -42.53131,0 0,-248.11372 42.53131,0 0,116.97192 86.83655,0 z"
     style="font-size:354.44198608px;font-style:normal;font-variant:normal;font-weight:bold;font-stretch:normal;font-family:Opificio;-inkscape-font-specification:Opificio Bold"
     id="path3017" /><path
     d="m 675.53605,-124.05686 c -1e-5,-17.9556 3.48477,-34.96846 10.45435,-51.03865 6.96954,-16.06984 16.47922,-30.07025 28.52907,-42.00129 12.04976,-11.9306 26.05017,-21.38079 42.00129,-28.3506 15.95094,-6.96931 32.90431,-10.45409 50.86018,-10.45435 17.96279,2.6e-4 34.97746,3.48504 51.04406,10.45435 16.06621,6.96981 30.06662,16.42 42.00128,28.3506 11.9342,11.93104 21.38619,25.93145 28.35601,42.00129 6.9693,16.07019 10.45408,33.08305 10.45435,51.03865 -2.7e-4,18.19382 -3.48505,35.266174 -10.45435,51.217128 -6.96982,15.9511 -16.42181,29.893827 -28.35601,41.828222 C 888.49162,-19.077054 874.49121,-9.6250604 858.425,-2.6555026 842.3584,4.3140606 825.34373,7.7988408 807.38094,7.7988486 789.42507,7.7988408 772.4717,4.3140606 756.52076,-2.6555026 740.56964,-9.6250604 726.56923,-19.077054 714.51947,-31.01151 702.46962,-42.945905 692.95994,-56.888632 685.9904,-72.839732 679.02082,-88.790686 675.53604,-105.86304 675.53605,-124.05686 z m 42.5313,0 c -5e-5,12.2879 2.3634,23.80768 7.09036,34.559393 4.72684,10.75189 11.16638,20.203883 19.31864,28.356008 8.15211,8.152248 17.6023,14.59179 28.3506,19.318646 10.74809,4.72694 22.26607,7.090389 34.55399,7.090354 12.05687,3.5e-5 23.51897,-2.363414 34.38632,-7.090354 10.867,-4.726856 20.37669,-11.166398 28.52908,-19.318646 8.15198,-8.152125 14.59152,-17.604118 19.31864,-28.356008 4.72668,-10.751713 7.09013,-22.271493 7.09036,-34.559393 -2.3e-4,-12.04968 -2.36368,-23.50997 -7.09036,-34.38091 -4.72712,-10.87063 -11.16666,-20.32262 -19.31864,-28.35601 -8.15239,-8.03302 -17.66208,-14.41307 -28.52908,-19.14017 -10.86735,-4.72669 -22.32945,-7.09014 -34.38632,-7.09036 -12.28792,2.2e-4 -23.8059,2.36367 -34.55399,7.09036 -10.7483,4.7271 -20.19849,11.10715 -28.3506,19.14017 -8.15226,8.03339 -14.5918,17.48538 -19.31864,28.35601 -4.72696,10.87094 -7.09041,22.33123 -7.09036,34.38091 z"
     style="font-size:354.44198608px;font-style:normal;font-variant:normal;font-weight:bold;font-stretch:normal;font-family:Opificio;-inkscape-font-specification:Opificio Bold"
     id="path3019" /><path
     d="m 963.28215,-248.11372 171.54225,0 0,42.54213 -129.0109,0 0,74.42979 106.3282,0 0,42.174352 -106.3282,0 0,46.43614 129.0109,0 0,42.531308 -171.54225,0 z"
     style="font-size:354.44198608px;font-style:normal;font-variant:normal;font-weight:bold;font-stretch:normal;font-family:Opificio;-inkscape-font-specification:Opificio Bold"
     id="path3021" /><path
     d="m 1298.3839,-68.047929 c -2e-4,-6.381785 -1.5938,-11.876669 -4.781,-16.484667 -3.1875,-4.60783 -7.3807,-8.566742 -12.5798,-11.876749 -5.1994,-3.309814 -11.1666,-6.264575 -17.9017,-8.864295 -6.7353,-2.59951 -13.6472,-5.19732 -20.7356,-7.79344 -8.5093,-2.83386 -18.8482,-6.73148 -31.0169,-11.69286 -12.1689,-4.96114 -22.2699,-11.69634 -30.3031,-20.20562 -8.0332,-8.50899 -13.1134,-18.90745 -15.2407,-31.1954 -1.1826,-10.62903 0.3533,-20.78771 4.6079,-30.47608 4.2546,-9.68795 10.3984,-18.19528 18.4317,-25.52203 8.0332,-7.32628 17.4851,-13.11502 28.356,-17.36623 10.8707,-4.25071 22.331,-6.37619 34.3809,-6.37645 15.1217,2.6e-4 27.9394,2.77654 38.4534,8.32887 10.5137,5.55282 19.1382,12.22672 25.8736,20.02173 6.735,7.79546 11.6981,16.00534 14.8892,24.62965 3.1907,8.62472 4.9052,15.89354 5.1433,21.80649 l -43.2452,0 c -2.3654,-10.63624 -6.7966,-18.90741 -13.2937,-24.81353 -6.4974,-5.90572 -15.8899,-9.09664 -28.1775,-9.57279 -7.0887,-0.23776 -13.4687,0.64741 -19.1402,2.6555 -5.6716,2.00851 -10.3967,4.72711 -14.1753,8.1558 -3.7787,3.4291 -6.436,7.32852 -7.9719,11.69827 -1.5361,4.37014 -1.8317,8.80138 -0.887,13.29374 0.7066,3.54085 2.4788,6.61099 5.3164,9.21043 2.8375,2.59978 6.3818,4.96323 10.6328,7.09035 4.2509,2.12745 9.0355,4.13575 14.3538,6.02491 5.3181,1.88948 10.9302,3.77879 16.8362,5.66796 9.9224,3.31006 19.9045,6.91382 29.9461,10.8113 10.0414,3.89776 19.0805,8.91851 27.1175,15.06227 8.0366,6.14401 14.5952,13.82387 19.6756,23.0396 5.08,9.215927 7.6202,20.797007 7.6204,34.743271 -2e-4,12.049872 -2.4232,22.799869 -7.2689,32.250024 -4.846,9.450226 -11.4046,17.366248 -19.6756,23.748089 -8.2713,6.3818651 -17.781,11.28543585 -28.529,14.7107269 -10.7484,3.4252857 -21.913,5.1379299 -33.494,5.1379377 -11.8119,-7.8e-6 -23.3299,-2.1272921 -34.554,-6.3818595 -11.2242,-4.2545701 -21.208,-10.4579477 -29.9514,-18.6101511 -8.7436,-8.152169 -15.7149,-18.135984 -20.9142,-29.951473 -5.1992,-11.815395 -7.5608,-25.399368 -7.0849,-40.751959 l 42.5313,0 c 0,7.319389 1.1213,14.346638 3.364,21.08177 2.2426,6.735266 5.4912,12.583495 9.7459,17.544705 4.2545,4.961309 9.4537,8.920222 15.5977,11.876749 6.1438,2.956602 13.1133,4.434885 20.9087,4.434852 14.1769,3.3e-5 25.5777,-3.014221 34.2024,-9.042771 8.6244,-6.028465 12.9366,-14.71067 12.9368,-26.04664 z"
     style="font-size:354.44198608px;font-style:normal;font-variant:normal;font-weight:bold;font-stretch:normal;font-family:Opificio;-inkscape-font-specification:Opificio Bold"
     id="path3023" /></g>
</g>
<g
   id="O_1_">
	<g
   transform="matrix(1 0 0 1 2207.8569 209.576)"
   style="font-size:199.85549927px;font-family:Opificio"
   id="text11"><path
     d="m 5.5989791,-69.950645 c -5.6e-6,-10.258615 1.9649211,-19.917556 5.8947859,-28.976851 3.929842,-9.059094 9.291967,-16.986914 16.086391,-23.783464 6.79437,-6.79631 14.722183,-12.15945 23.783464,-16.08944 9.061177,-3.92971 18.721135,-5.89464 28.979901,-5.89479 10.258605,1.5e-4 19.917549,1.96508 28.976849,5.89479 9.05909,3.92999 16.9869,9.29313 23.78347,16.08944 6.79629,6.79655 12.15943,14.72437 16.08944,23.783464 3.9297,9.059295 5.89463,18.718236 5.89478,28.976851 -1.5e-4,10.258756 -1.96508,19.918714 -5.89478,28.979902 -3.93001,9.06127 -9.29315,16.989083 -16.08944,23.783463 -6.79657,6.794414 -14.72438,12.1565393 -23.78347,16.0863914 -9.0593,3.9298544 -18.718244,5.894781 -28.976849,5.8947858 C 70.084755,4.7938924 60.424797,2.8289658 51.36362,-1.1008886 42.302339,-5.0307407 34.374526,-10.392866 27.580156,-17.18728 20.785732,-23.98166 15.423607,-31.909473 11.493765,-40.970743 7.5639002,-50.031931 5.5989735,-59.691889 5.5989791,-69.950645 z m 13.9852499,0 c -2e-5,8.262317 1.598961,16.090512 4.796946,23.484607 3.197937,7.394189 7.561843,13.856185 13.091731,19.386008 5.529813,5.529878 11.991809,9.893784 19.386008,13.091731 7.394085,3.197975 15.222279,4.7969557 23.484607,4.7969465 8.258101,9.2e-6 16.051733,-1.5989715 23.380919,-4.7969465 7.32898,-3.197947 13.75845,-7.561853 19.28843,-13.091731 5.52972,-5.529823 9.89261,-11.991819 13.08868,-19.386008 3.19579,-7.394095 4.79375,-15.22229 4.79389,-23.484607 -1.4e-4,-8.258111 -1.5981,-16.051744 -4.79389,-23.380922 -3.19607,-7.328993 -7.55896,-13.758463 -13.08868,-19.288423 -5.52998,-5.52974 -11.95945,-9.89364 -19.28843,-13.09173 -7.329186,-3.19784 -15.122818,-4.79682 -23.380919,-4.79695 -8.262328,1.3e-4 -16.090522,1.59911 -23.484607,4.79695 -7.394199,3.19809 -13.856195,7.56199 -19.386008,13.09173 -5.529888,5.52996 -9.893794,11.95943 -13.091731,19.288423 -3.197985,7.329178 -4.796966,15.122811 -4.796946,23.380922 z"
     style="font-size:199.85549927px;font-family:Opificio"
     id="path3026" /></g>
</g>
<g
   id="ECHOES">
</g>
<g
   id="O">
</g>
<g
   id="HALCYON">
</g>
</svg>